<svg id="Layer_1" data-name="Layer 1" xmlns="http://www.w3.org/2000/svg" viewBox="0 0 91.6 92.3"><defs><style>.cls-1{stroke:#000;stroke-miterlimit:10;stroke-width:0.5px;}</style></defs><path d="M64.1,38.1l-30.2,24a1.46,1.46,0,0,0-.2,2.1,1.43,1.43,0,0,0,1.2.6,1.4,1.4,0,0,0,.9-.3L66,40.5a1.53,1.53,0,0,0-1.9-2.4Z" transform="translate(-4.15 -4.15)"/><path d="M42,48.8a4.87,4.87,0,0,0,1.2-.1A7.54,7.54,0,0,0,49.5,40a7.71,7.71,0,0,0-3-5,7.45,7.45,0,0,0-5.6-1.4,7.71,7.71,0,0,0-5,3,7.45,7.45,0,0,0-1.4,5.6A7.69,7.69,0,0,0,42,48.8Zm-.7-12.1c.2,0,.5-.1.7-.1a4.58,4.58,0,1,1-4.5,5.3A4.61,4.61,0,0,1,41.3,36.7Z" transform="translate(-4.15 -4.15)"/><path d="M58,53.8a7.6,7.6,0,1,0,7.6,7.6A7.73,7.73,0,0,0,58,53.8Zm0,12.1a4.6,4.6,0,1,1,4.6-4.6A4.65,4.65,0,0,1,58,65.9Z" transform="translate(-4.15 -4.15)"/><path class="cls-1" d="M95.4,50.3c0-.1.1-.3.1-.4,0-4.3-4.5-6.5-8.4-8.4-2.8-1.4-5.8-2.9-6.6-4.7s.3-5,1.4-7.9c1.5-4.1,3-8.3.2-11.1s-6.8-1.8-10.8-.9c-2.8.6-5.7,1.3-7.6.5s-3.5-3.3-5-5.7c-2.2-3.4-4.6-7.3-8.8-7.3s-6.6,3.9-8.7,7.4c-1.5,2.5-3,5-4.9,5.8s-4.9.1-7.7-.6c-4-1-8.1-2-10.8.7s-1.4,7-.1,11.1c1,3,1.9,6,1.1,8s-3.6,3.3-6.3,4.7c-3.8,2-8.1,4.2-8.1,8.4a.6.6,0,0,0,.1.4c0,.1-.1.3-.1.4,0,4.2,4.3,6.5,8.1,8.4,2.7,1.4,5.5,2.8,6.3,4.7s-.2,5-1.1,8c-1.3,4.1-2.7,8.3.1,11.1s6.9,1.7,10.8.7c2.8-.7,5.8-1.4,7.7-.6s3.4,3.3,4.9,5.8c2.1,3.5,4.5,7.4,8.7,7.4s6.7-3.9,8.8-7.3c1.5-2.4,3.1-4.9,5-5.7s4.8-.2,7.6.5c3.9.9,8,1.9,10.8-.9s1.3-7-.2-11.1c-1.1-3-2.2-6-1.4-7.9s3.7-3.3,6.6-4.7c3.9-2,8.4-4.2,8.4-8.4C95.5,50.5,95.4,50.4,95.4,50.3Zm-9.7,6.1c-3.3,1.7-6.8,3.4-8,6.3s.1,6.6,1.3,10.1c1.2,3.3,2.4,6.5.9,7.9-1.6,1.6-4.7.9-8,.1s-6.6-1.5-9.5-.3-4.6,4-6.3,6.8c-1.9,3-3.7,5.9-6.3,5.9s-4.3-2.9-6.2-6c-1.7-2.9-3.5-5.8-6.3-7s-6.3-.4-9.6.5-6.4,1.6-8,.1-.5-4.7.6-8c1.1-3.5,2.3-7.1,1-10s-4.5-4.6-7.7-6.2-6.4-3.3-6.4-5.8a.6.6,0,0,0-.1-.4c0-.1.1-.3.1-.4,0-2.4,3.1-4,6.4-5.8,3.2-1.6,6.5-3.3,7.7-6.2s.1-6.6-1-10-2.1-6.6-.6-8c1.6-1.6,4.7-.8,8,.1s6.7,1.7,9.6.5,4.6-4.1,6.3-7c1.9-3.1,3.6-6,6.2-6s4.4,2.9,6.3,5.9c1.8,2.8,3.6,5.6,6.3,6.8,2.9,1.2,6.2.4,9.5-.3s6.4-1.5,8,.1c1.5,1.4.3,4.6-.9,7.9-1.3,3.5-2.6,7.1-1.3,10.1s4.7,4.6,8,6.3c3.5,1.7,6.7,3.4,6.7,5.8a.6.6,0,0,0,.1.4c0,.1-.1.3-.1.4C92.5,53,89.2,54.7,85.7,56.4Z" transform="translate(-4.15 -4.15)"/></svg>