<?xml version="1.0" encoding="utf-8"?>
<!-- Generator: Adobe Illustrator 25.2.0, SVG Export Plug-In . SVG Version: 6.00 Build 0)  -->
<svg version="1.1" id="Layer_1" xmlns="http://www.w3.org/2000/svg" xmlns:xlink="http://www.w3.org/1999/xlink" x="0px" y="0px"
	 viewBox="0 0 24 24" style="enable-background:new 0 0 24 24;" xml:space="preserve">
<style type="text/css">
	.st0{fill:#FFFFFF;}
</style>
<g>
	<path class="st0" d="M23.4,6.4L13,0.9c-0.4-0.1-0.6-0.3-1-0.3s-0.6,0.2-1,0.3L0.8,6.6c-0.5,0.2-1,0.4-0.6,1s1,0,1.4-0.2L2,7.2
		l0,16.1h2h16h2L21.9,6.8l0.2,0.1c0.4,0.3,0.8,0.8,1.8,0.7C24.3,7,24,6.7,23.4,6.4z M9,22.2c0.6,0,1-0.4,1-1v-1h4v1c0,0.6,0.4,1,1,1
		H9z M6,17.2c0-0.6,0.4-1,1-1h10c0.6,0,1,0.4,1,1v2h-1h-2H9H7H6V17.2z M8,15.2l0.9-3h6.4l0.8,3H8z M15,20.2h2v1h-2V20.2z M7,20.2h2
		v1H7V20.2z M20.9,22.2H17c0.6,0,1-0.4,1-1v-1c0.6,0,1-0.4,1-1v-2c0-1-0.8-1.9-1.8-2l-1.2-4H8l-1.2,4c-1,0.1-1.8,1-1.8,2v2
		c0,0.6,0.4,1,1,1v1c0,0.6,0.4,1,1,1H3.2V6.5L12,1.7l8.9,4.6V22.2z"/>
	<circle class="st0" cx="7.5" cy="17.5" r="0.5"/>
	<circle class="st0" cx="16.5" cy="17.5" r="0.5"/>
	<path class="st0" d="M9.5,18h5c0.3,0,0.5-0.2,0.5-0.5S14.8,17,14.5,17h-5C9.2,17,9,17.2,9,17.5S9.2,18,9.5,18z"/>
</g>
</svg>
